<?xml version="1.0" standalone="no"?>
<!DOCTYPE svg PUBLIC "-//W3C//DTD SVG 20010904//EN"
 "http://www.w3.org/TR/2001/REC-SVG-20010904/DTD/svg10.dtd">
<svg version="1.0" xmlns="http://www.w3.org/2000/svg"
 width="677.000000pt" height="369.000000pt" viewBox="0 0 677.000000 369.000000"
 preserveAspectRatio="xMidYMid meet">

<g transform="translate(0.000000,369.000000) scale(0.100000,-0.100000)"
fill="#000000" stroke="none">
<path d="M3295 3205 c-138 -23 -228 -52 -372 -122 -200 -96 -352 -216 -478
-378 -191 -245 -288 -507 -302 -820 -16 -369 129 -754 380 -1009 220 -222 427
-339 719 -408 76 -17 125 -21 273 -22 163 -1 190 2 285 26 260 65 448 169 635
350 202 194 340 438 400 708 25 111 31 388 11 515 -18 119 -56 253 -98 349
-36 82 -121 226 -147 250 -35 32 -33 -2 3 -59 84 -130 151 -291 187 -444 24
-101 38 -361 21 -361 -7 0 -12 10 -12 23 0 57 -22 249 -35 312 -34 152 -98
308 -178 430 -48 73 -97 134 -97 120 0 -4 -9 0 -19 9 -23 21 -35 7 -23 -26 5
-12 7 -29 5 -35 -7 -20 -51 -16 -58 6 -7 23 -43 56 -51 48 -4 -3 3 -26 15 -50
31 -65 28 -93 -16 -116 -45 -23 -117 17 -143 80 -26 62 24 84 53 24 16 -34 42
-54 53 -42 3 3 -4 23 -15 46 -38 73 -23 120 42 137 16 3 25 9 20 13 -8 6 -15
24 -17 51 -3 23 -16 41 -27 35 -5 -4 -9 -1 -9 5 0 20 -73 80 -158 130 -85 51
-228 109 -330 135 -340 87 -751 11 -1037 -190 -294 -207 -521 -585 -552 -921
-3 -36 -10 -67 -15 -70 -4 -3 -5 -16 -2 -29 3 -12 1 -26 -5 -29 -7 -5 -11 6
-11 31 0 57 12 143 19 139 3 -2 7 24 7 57 3 124 86 326 213 514 126 189 290
332 491 429 322 156 652 183 978 79 96 -30 283 -119 360 -169 28 -19 52 -31
52 -25 0 36 -244 178 -385 224 -177 58 -447 80 -630 50z m70 -146 c0 -19 -6
-25 -27 -27 -33 -4 -33 -9 -12 -104 17 -75 13 -87 -28 -88 -18 0 -27 25 -45
120 -9 44 -10 45 -45 43 -41 -2 -59 21 -35 44 13 13 159 44 182 39 6 -2 10
-14 10 -27z m292 -5 c34 -43 39 -84 15 -131 -11 -21 -32 -44 -47 -51 -33 -15
-97 -15 -129 0 -35 15 -69 87 -60 125 17 69 56 95 138 90 51 -3 62 -7 83 -33z
m177 -7 c17 -12 17 -16 -5 -82 -25 -77 -19 -100 26 -100 25 0 31 7 56 68 15
38 30 71 33 75 3 3 17 0 31 -6 l25 -11 -26 -73 c-34 -97 -61 -122 -128 -115
-38 3 -55 11 -73 31 -27 32 -28 57 -7 140 22 85 34 98 68 73z m-837 -133 c10
-16 16 -43 16 -65 -1 -24 3 -39 10 -39 7 0 23 -9 36 -19 l24 -18 -26 -17 c-24
-16 -28 -16 -57 -1 -17 9 -40 13 -50 10 -22 -7 -26 -20 -10 -30 17 -11 11 -44
-11 -56 -28 -14 -34 -7 -93 103 l-47 87 23 14 c100 64 157 73 185 31z m1199
-32 c22 -15 44 -57 44 -85 0 -33 -40 -77 -70 -77 -17 0 -20 -6 -20 -40 0 -24
-5 -40 -12 -40 -22 0 -48 33 -48 61 0 59 -19 74 -49 37 -19 -23 -47 -20 -57 7
-6 14 35 83 94 162 l24 33 42 -25 c22 -14 46 -29 52 -33z m-461 -102 c220 -57
431 -212 564 -413 29 -42 65 -84 81 -92 31 -16 48 -65 37 -106 -3 -11 1 -53 9
-92 38 -181 35 -320 -11 -511 -19 -80 -38 -129 -72 -187 -42 -72 -73 -112 -73
-94 0 4 -9 -4 -20 -18 -11 -14 -20 -30 -20 -36 0 -6 -4 -11 -10 -11 -5 0 -10
-7 -10 -16 0 -8 -4 -13 -9 -10 -4 3 -31 -18 -59 -47 -28 -29 -78 -72 -111 -96
-33 -24 -57 -49 -54 -54 3 -6 1 -7 -5 -3 -11 7 -92 -29 -102 -45 -3 -5 -53
-19 -110 -31 -58 -12 -106 -25 -108 -28 -1 -3 -17 -4 -36 -2 -20 2 -37 -1 -41
-9 -6 -9 -2 -11 14 -6 13 3 20 3 16 -1 -4 -4 -33 -7 -66 -7 -44 0 -59 4 -59
14 0 11 -14 13 -70 7 -49 -4 -70 -3 -70 5 0 7 -10 9 -27 5 -19 -5 -23 -4 -14
3 16 10 -84 36 -132 34 -21 -1 -27 2 -23 13 6 16 -5 19 -21 3 -7 -7 -12 -6
-17 6 -3 9 -2 13 4 10 6 -3 10 -4 10 -1 0 12 -79 45 -99 41 -13 -2 -25 3 -31
16 -6 10 -8 19 -4 19 3 0 1 7 -6 15 -7 8 -21 15 -31 15 -11 0 -18 3 -17 7 4
13 -106 111 -119 106 -6 -2 -15 1 -19 8 -5 9 -2 10 10 6 14 -6 13 -1 -6 22
-13 15 -27 26 -32 23 -5 -3 -6 1 -1 8 6 10 4 12 -8 7 -9 -3 -17 -2 -19 2 -2 5
-21 29 -42 55 -22 26 -41 52 -42 59 -2 7 -12 39 -25 72 -29 79 -39 125 -28
125 5 0 9 9 9 21 0 14 -5 19 -14 16 -9 -4 -16 3 -19 21 -5 25 -4 25 9 7 14
-19 14 -19 14 1 0 10 -9 25 -20 32 -14 8 -20 23 -20 48 0 21 4 33 10 29 6 -4
10 15 10 50 0 36 -4 54 -10 50 -6 -4 -8 -10 -5 -15 3 -5 1 -11 -5 -15 -15 -9
-12 88 5 188 11 61 12 94 5 112 -8 22 -6 32 11 56 11 16 25 29 30 29 5 0 9 5
9 10 0 6 8 23 18 38 11 15 41 65 68 111 103 176 325 350 519 406 173 50 357
55 510 15z m-946 -75 c72 -73 73 -76 56 -95 -23 -26 -31 -25 -57 5 -28 33 -39
32 -67 -6 l-23 -31 27 -28 c23 -24 25 -31 16 -49 -7 -12 -17 -21 -24 -21 -7 0
-47 33 -91 74 -71 66 -77 75 -67 95 15 26 25 26 62 1 54 -39 99 14 58 69 -18
25 -20 33 -9 46 23 27 45 16 119 -60z m-219 -250 c0 -3 -20 -42 -44 -88 -49
-90 -90 -212 -108 -318 -8 -44 -17 -69 -25 -69 -17 0 -16 14 3 108 28 135 130
372 160 372 8 0 14 -2 14 -5z m1924 -51 c73 -123 156 -424 117 -424 -5 0 -12
15 -16 33 -27 143 -52 223 -101 323 -30 61 -54 114 -54 118 0 20 28 -6 54 -50z
m-2057 -544 c25 0 25 -1 10 -18 -10 -10 -17 -31 -17 -46 0 -26 -2 -27 -30 -21
-19 4 -36 2 -45 -5 -16 -13 -18 -9 -15 28 1 13 -6 32 -16 43 -16 18 -16 19 8
19 17 0 29 8 37 27 l13 28 14 -28 c10 -19 22 -27 41 -27z m2236 0 l30 0 -22
-24 c-16 -17 -21 -31 -16 -45 7 -24 2 -26 -25 -9 -15 10 -22 10 -32 0 -19 -19
-31 -14 -25 10 4 15 -1 30 -15 45 l-21 23 26 0 c17 0 31 8 38 22 l12 23 10
-23 c7 -16 19 -22 40 -22z m124 -142 c-3 -8 -6 -5 -6 6 -1 11 2 17 5 13 3 -3
4 -12 1 -19z m-179 -64 c2 -25 -1 -33 -9 -29 -8 5 -9 -2 -4 -25 5 -24 4 -31
-5 -25 -9 5 -10 1 -5 -16 5 -17 4 -21 -3 -14 -8 7 -8 30 1 78 12 74 22 86 25
31z m-2212 -20 c-4 -9 -9 -15 -11 -12 -3 3 -3 13 1 22 4 9 9 15 11 12 3 -3 3
-13 -1 -22z m16 -96 c-3 -14 -1 -19 6 -14 7 4 12 1 12 -8 0 -8 -4 -17 -9 -20
-12 -8 -30 67 -23 101 l6 28 7 -33 c4 -18 4 -43 1 -54z m2166 -33 c-3 -3 -9 2
-12 12 -6 14 -5 15 5 6 7 -7 10 -15 7 -18z m-10 -30 c-3 -3 -9 2 -12 12 -6 14
-5 15 5 6 7 -7 10 -15 7 -18z m-42 -95 c-1 -29 -11 -39 -23 -26 -4 3 -1 6 6 6
7 0 10 4 7 9 -5 8 2 41 9 41 1 0 2 -14 1 -30z m-1870 -139 c30 -19 64 -74 64
-106 0 -24 -44 -15 -48 10 -6 31 -43 65 -72 65 -31 0 -70 -33 -70 -59 0 -24
37 -71 56 -71 8 0 14 -10 14 -25 0 -34 -21 -32 -64 6 -47 40 -61 91 -39 136
28 60 100 80 159 44z m1797 -16 c77 -15 97 -22 95 -34 -2 -10 -16 -17 -36 -19
-42 -4 -87 -65 -76 -106 4 -16 1 -32 -7 -42 -13 -16 -25 -2 -96 127 -29 52
-31 58 -16 78 8 12 20 20 27 18 6 -2 55 -12 109 -22z m-158 -208 c72 -87 69
-102 -18 -93 -34 4 -73 10 -87 13 -23 6 -22 4 15 -46 31 -43 35 -55 24 -62 -8
-5 -17 -9 -20 -9 -11 0 -129 143 -129 156 0 21 32 24 105 10 39 -8 72 -12 74
-10 2 1 -13 22 -33 45 -20 24 -36 46 -36 50 0 12 34 29 41 21 4 -4 32 -38 64
-75z m-1443 16 c14 -16 12 -28 -15 -123 -16 -58 -31 -107 -33 -109 -2 -2 -13
4 -23 13 -15 13 -18 24 -11 40 11 31 -54 86 -93 79 -15 -3 -34 1 -43 8 -14 12
-4 19 81 61 54 26 104 48 110 48 7 0 19 -8 27 -17z m193 -131 c61 -33 82 -70
65 -112 -7 -17 -24 -33 -41 -39 -28 -10 -29 -12 -23 -51 7 -41 7 -41 -19 -29
-18 8 -26 22 -31 50 -8 50 -38 69 -54 34 -12 -26 -36 -33 -48 -14 -8 14 76
189 91 189 5 0 32 -13 60 -28z m985 13 c0 -8 -18 -24 -40 -35 -41 -21 -52 -46
-25 -56 8 -3 30 3 48 15 19 11 37 18 40 14 15 -15 5 -31 -33 -52 -34 -19 -39
-25 -30 -42 13 -24 16 -24 69 6 34 20 46 23 53 13 4 -7 8 -15 8 -18 0 -7 -140
-83 -144 -79 -8 11 -96 178 -96 183 0 9 113 65 133 66 9 0 17 -7 17 -15z
m-739 -101 c58 -14 66 -18 62 -35 -5 -16 -11 -18 -39 -13 -36 7 -34 10 -64
-113 -7 -27 -16 -43 -26 -43 -24 0 -26 23 -10 88 20 77 20 92 -1 92 -29 0 -47
16 -39 35 4 12 13 15 29 11 12 -4 52 -14 88 -22z m527 8 c25 -16 3 -37 -39
-37 -72 0 -104 -68 -55 -114 20 -19 31 -22 60 -17 39 7 41 12 26 50 -5 15 -6
26 -1 26 5 0 16 2 23 5 10 4 18 -7 27 -35 11 -38 11 -42 -11 -60 -27 -23 -78
-35 -112 -26 -68 17 -106 99 -72 151 34 51 115 81 154 57z m-268 -129 c25 -53
47 -100 48 -104 9 -22 -47 -7 -62 16 -13 20 -25 25 -60 25 -36 0 -45 -4 -54
-25 -8 -17 -20 -25 -37 -25 -29 0 -29 0 34 128 33 67 45 82 63 82 19 0 31 -17
68 -97z"/>
<path d="M3522 3024 c-46 -32 -17 -114 40 -114 28 0 58 37 58 69 0 31 -30 61
-60 61 -9 0 -26 -7 -38 -16z"/>
<path d="M2896 2867 c-22 -16 -18 -50 7 -55 25 -5 47 16 47 44 0 27 -25 32
-54 11z"/>
<path d="M4112 2838 c-7 -7 -12 -17 -12 -23 0 -16 45 -39 59 -31 23 15 5 66
-24 66 -6 0 -16 -5 -23 -12z"/>
<path d="M3338 2760 c-63 -11 -139 -36 -217 -73 -92 -43 -254 -170 -316 -246
-48 -60 -143 -239 -160 -301 -7 -28 48 59 85 133 36 73 50 81 138 83 107 3
182 14 218 31 17 8 41 15 53 16 11 1 21 5 21 9 0 4 20 8 45 8 25 0 60 6 78 14
49 20 382 22 429 3 19 -8 59 -18 89 -22 30 -4 60 -12 67 -17 6 -6 12 -8 12 -4
0 3 12 1 28 -5 64 -25 292 -55 292 -39 0 20 58 -20 80 -55 35 -57 33 -40 -4
33 -97 191 -354 381 -578 426 -82 17 -276 20 -360 6z"/>
<path d="M4037 2324 c-4 -4 -7 -21 -7 -38 0 -45 -29 -159 -42 -167 -6 -4 -11
-29 -10 -56 0 -26 -4 -51 -10 -54 -6 -4 -13 -38 -15 -76 l-5 -70 -82 -7 c-44
-3 -99 -6 -121 -6 -49 -1 -95 -37 -95 -75 0 -14 -5 -25 -11 -25 -7 0 -34 -13
-60 -30 -38 -23 -50 -26 -56 -16 -4 7 -18 18 -30 25 -13 6 -23 21 -23 31 0 11
-4 20 -10 20 -5 0 -10 4 -10 9 0 5 21 9 48 8 l47 -2 3 36 c3 33 0 37 -20 37
-13 -1 -38 3 -55 7 l-33 8 -1 -44 c-1 -24 -1 -47 0 -51 0 -5 -4 -8 -10 -8 -7
0 -9 -11 -5 -30 5 -29 5 -30 -34 -30 -28 0 -40 4 -40 14 0 8 -16 27 -35 42
-32 24 -35 31 -35 79 0 39 -5 56 -20 70 -19 17 -21 17 -40 0 -11 -10 -20 -30
-19 -44 0 -14 3 -20 6 -13 2 6 18 12 34 12 27 0 29 -2 29 -40 0 -38 -2 -40
-30 -40 -22 0 -30 5 -31 18 0 13 -3 12 -11 -5 -6 -13 -17 -23 -25 -23 -7 0
-17 10 -22 23 -20 51 -57 65 -183 66 l-57 1 6 50 c5 42 3 50 -11 50 -12 0 -16
10 -16 45 0 59 -20 106 -53 124 -17 9 -27 23 -27 37 0 35 -18 38 -25 5 -3 -16
-17 -36 -30 -45 -23 -15 -45 -66 -43 -96 3 -41 -3 -70 -16 -70 -11 0 -13 -20
-13 -90 1 -49 -1 -92 -5 -95 -3 -4 -25 3 -47 13 -40 20 -41 20 -41 1 0 -11 8
-22 18 -25 9 -3 31 -13 47 -21 l30 -14 -30 5 c-16 2 -37 7 -47 11 -14 6 -16 1
-11 -37 8 -72 41 -197 67 -254 l25 -54 233 0 c252 0 368 -7 368 -23 0 -6 -20
-7 -51 -3 l-52 7 7 -32 c3 -18 14 -42 24 -52 13 -16 14 -21 4 -25 -9 -2 -3
-10 15 -20 22 -12 64 -15 193 -16 l164 -1 23 35 c34 51 71 88 107 108 26 15
72 18 316 22 l285 5 28 70 c16 39 32 89 36 113 8 40 7 42 -15 42 -13 0 -24 5
-24 10 0 6 11 10 25 10 20 0 25 6 30 34 4 18 5 42 3 54 -3 18 -6 19 -38 8 -29
-10 -35 -16 -32 -37 1 -14 -4 -39 -13 -55 l-15 -29 0 53 c0 49 -2 52 -25 52
-21 0 -25 -5 -25 -30 0 -20 -5 -30 -15 -30 -11 0 -15 12 -15 50 l0 50 95 0 95
0 0 35 c0 24 -5 35 -15 35 -11 0 -15 11 -15 37 0 48 -33 116 -65 133 -16 9
-25 22 -26 39 -1 33 -17 76 -18 49 -1 -10 -5 -18 -11 -18 -5 0 -10 -12 -10
-26 0 -16 -11 -35 -30 -51 -43 -36 -60 -74 -60 -136 0 -47 -3 -55 -21 -60 -19
-5 -20 -2 -19 66 1 40 -3 85 -9 100 -6 15 -10 46 -9 67 1 25 -5 47 -15 58 -10
10 -17 25 -17 34 0 8 -7 36 -16 61 -12 36 -13 54 -5 77 5 17 6 28 1 25 -4 -3
-10 0 -12 6 -2 5 -7 7 -11 3z m7 -141 c-1 -21 -5 -47 -10 -57 -5 -13 -3 -21 4
-24 14 -4 16 -22 3 -22 -16 0 -22 33 -15 87 7 60 21 72 18 16z m-1207 -65 c33
-31 29 -38 -22 -38 -46 0 -53 7 -35 41 14 25 28 24 57 -3z m1450 -60 c-3 -8
-6 -5 -6 6 -1 11 2 17 5 13 3 -3 4 -12 1 -19z m-1427 -40 c0 -47 -25 -53 -33
-8 -8 40 -41 41 -55 3 -9 -24 -11 -25 -11 -6 -2 43 9 53 55 51 l44 -1 0 -39z
m1207 12 c0 -16 -4 -30 -9 -30 -4 0 -8 11 -8 25 0 14 -4 25 -10 25 -5 0 -10
-11 -10 -24 0 -13 -6 -29 -14 -35 -11 -10 -15 -4 -18 29 l-4 40 37 0 c33 0 36
-2 36 -30z m199 -45 c-12 -43 -26 -70 -26 -46 0 8 -5 9 -19 1 -41 -21 -41 -7
-1 48 42 58 61 56 46 -3z m-211 -5 c3 -5 -3 -10 -15 -10 -12 0 -18 5 -15 10 3
6 10 10 15 10 5 0 12 -4 15 -10z m264 -39 c2 -26 -13 -1 -16 27 -2 23 -1 24 7
7 5 -11 9 -26 9 -34z m-1419 4 c0 -16 -18 -15 -110 5 -29 7 -22 8 38 9 59 1
72 -2 72 -14z m1210 -55 l0 -57 -55 5 c-35 3 -60 0 -70 -8 -13 -11 -15 -4 -15
54 l0 67 70 -2 70 -2 0 -57z m-864 31 c-4 -5 0 -12 6 -14 8 -3 6 -6 -4 -6 -18
-1 -24 10 -11 22 9 10 15 8 9 -2z m1050 -11 c8 0 14 -9 13 -22 -1 -17 -2 -19
-6 -5 -7 29 -40 21 -46 -12 -8 -40 -35 -49 -29 -10 3 21 0 29 -11 29 -10 0
-17 -12 -20 -32 -3 -29 -4 -28 -5 9 -2 40 -1 42 31 46 17 2 38 2 45 0 8 -1 20
-3 28 -3z m-1402 -97 c5 -67 4 -99 -3 -101 -6 -2 -9 -8 -5 -13 3 -5 -1 -9 -9
-9 -8 0 -17 7 -21 15 -8 23 -86 21 -87 -2 0 -15 -2 -15 -9 2 -11 26 -12 156
-1 173 4 8 33 17 62 22 30 4 57 8 60 9 4 0 9 -43 13 -96z m586 47 c8 -5 11
-12 8 -16 -10 -9 -38 3 -38 16 0 12 10 13 30 0z m60 -15 c0 -6 -45 -26 -67
-31 -7 -1 -13 2 -13 7 0 5 9 9 20 9 11 0 20 5 20 10 0 6 9 10 20 10 11 0 20
-2 20 -5z m180 -8 c0 -2 -10 -12 -22 -23 l-23 -19 19 23 c18 21 26 27 26 19z
m48 -5 c14 10 15 10 5 -2 -7 -7 -22 -14 -33 -15 -16 -1 -17 1 -8 13 9 10 13
11 16 3 3 -9 8 -9 20 1z m42 4 c0 -2 -8 -10 -17 -17 -16 -13 -17 -12 -4 4 13
16 21 21 21 13z m30 0 c0 -2 -8 -10 -17 -17 -16 -13 -17 -12 -4 4 13 16 21 21
21 13z m55 -6 c-7 -12 23 -9 45 5 13 7 13 6 2 -7 -10 -12 -41 -17 -60 -9 -5 2
8 21 14 21 3 0 2 -5 -1 -10z m435 6 c0 -2 -8 -10 -17 -17 -16 -13 -17 -12 -4
4 13 16 21 21 21 13z m-256 -26 c7 0 21 -6 31 -14 18 -13 18 -14 -7 -9 -26 5
-27 3 -30 -43 -3 -42 -6 -49 -25 -52 -21 -3 -23 0 -23 47 0 44 -3 51 -19 51
-11 0 -22 -4 -25 -9 -4 -5 3 -7 14 -4 18 5 20 0 20 -41 l0 -46 -42 0 c-38 0
-40 1 -25 18 8 9 17 33 19 52 3 30 8 37 38 47 19 7 41 10 48 7 8 -2 19 -4 26
-4z m-954 -7 c-38 -7 -80 -52 -80 -85 0 -23 -4 -28 -25 -28 -33 0 -60 28 -60
63 0 38 -19 35 -26 -5 -6 -30 -7 -28 -8 15 l-1 47 113 -1 c61 -1 101 -4 87 -6z
m763 -22 c18 -1 24 -42 11 -75 -10 -26 -24 -18 -24 14 0 23 -4 30 -20 30 -16
0 -20 -7 -20 -30 0 -20 -5 -30 -15 -30 -10 0 -15 10 -15 30 0 20 -5 30 -15 30
-11 0 -14 -12 -14 -50 1 -28 -1 -54 -5 -57 -3 -3 -6 3 -6 14 0 12 -6 23 -13
26 -9 3 -12 16 -9 36 4 26 1 31 -17 31 -17 0 -21 -6 -21 -29 0 -16 -6 -31 -15
-35 -12 -4 -15 5 -15 48 l0 53 98 -2 c53 -1 105 -3 115 -4z m222 -9 c6 -4 12
-16 13 -27 2 -11 11 -28 19 -37 15 -17 14 -18 -20 -18 l-37 0 0 45 c0 44 5 52
25 37z m-775 -67 c0 -27 -17 -34 -26 -10 -4 8 -12 15 -20 15 -8 0 -14 -7 -14
-15 0 -8 -4 -15 -10 -15 -5 0 -10 7 -10 15 0 8 -9 15 -20 15 -11 0 -20 -7 -20
-15 0 -8 -5 -15 -10 -15 -6 0 -13 7 -16 15 -11 27 -33 16 -40 -20 -3 -19 -10
-35 -15 -35 -5 0 -9 16 -9 35 0 28 -4 35 -20 35 -11 0 -20 -4 -20 -10 0 -5 -4
-10 -10 -10 -5 0 -10 9 -10 20 0 19 7 20 135 20 l135 0 0 -25z m186 -40 c3
-25 5 -47 3 -49 -2 -2 -37 -6 -77 -8 -58 -3 -71 -1 -67 10 3 7 5 31 5 53 l0
39 64 0 65 0 7 -45z m69 35 c-3 -5 -12 -10 -18 -10 -7 0 -6 4 3 10 19 12 23
12 15 0z m-858 -37 c-3 -10 -5 -4 -5 12 0 17 2 24 5 18 2 -7 2 -21 0 -30z
m113 11 c0 -23 3 -25 33 -22 24 2 33 8 35 26 2 15 10 22 26 22 18 0 25 -7 30
-32 3 -17 5 -32 4 -32 -2 -1 -55 2 -118 5 -63 3 -103 6 -87 7 22 2 27 7 27 27
0 20 5 25 25 25 20 0 25 -5 25 -26z m260 -28 c0 -14 7 -25 18 -28 26 -7 42 2
42 22 0 21 45 34 96 28 26 -3 29 -7 32 -42 l3 -39 -27 22 c-33 26 -44 27 -44
1 0 -18 -7 -20 -88 -20 -84 0 -89 1 -100 24 -9 21 -8 25 6 29 10 3 5 5 -10 6
-50 2 -29 21 22 21 46 0 50 -2 50 -24z m263 12 c-2 -5 -3 -14 -3 -22 0 -16
-26 -46 -41 -46 -5 0 -9 17 -9 39 0 35 2 38 28 37 15 -1 26 -4 25 -8z m369
-15 c-3 -20 1 -23 27 -23 23 0 30 5 33 23 3 19 9 22 43 22 39 0 40 -1 36 -30
-1 -16 -5 -33 -7 -36 -2 -4 -52 -7 -111 -8 l-108 -1 -37 34 c-21 19 -38 38
-38 41 0 3 37 5 83 3 79 -3 82 -4 79 -25z m443 17 c4 -7 -41 -10 -137 -10 -87
0 -138 4 -129 9 20 13 258 14 266 1z m115 0 c0 -5 -18 -10 -41 -10 -24 0 -38
4 -34 10 3 6 22 10 41 10 19 0 34 -4 34 -10z m-360 -121 c0 -72 -3 -89 -15
-89 -12 0 -15 16 -15 88 0 49 3 92 6 95 17 17 24 -11 24 -94z m40 67 c5 -26 6
-26 29 -10 18 13 20 18 10 25 -11 7 -9 9 6 9 30 0 85 -37 85 -57 0 -14 -3 -14
-16 5 -20 29 -58 28 -82 -3 -14 -17 -22 -21 -25 -13 -3 7 -6 -15 -6 -49 -1
-49 -4 -63 -16 -63 -12 0 -15 17 -15 96 0 72 3 95 13 92 6 -3 14 -17 17 -32z
m210 -67 c0 -72 -3 -89 -15 -89 -12 0 -15 16 -15 88 0 49 3 92 6 95 17 17 24
-11 24 -94z m-626 76 c3 -8 1 -15 -4 -15 -6 0 -10 7 -10 15 0 8 2 15 4 15 2 0
6 -7 10 -15z m586 -75 c0 -72 -3 -90 -15 -90 -11 0 -14 18 -14 90 0 72 3 90
15 90 11 0 14 -18 14 -90z m-480 -5 l70 -80 -53 -6 c-30 -3 -58 -8 -63 -11 -5
-3 -10 17 -11 46 -1 28 -8 70 -17 94 -9 24 -11 42 -6 40 5 -2 41 -39 80 -83z
m-676 28 c4 -27 10 -63 13 -80 l5 -33 -61 0 c-39 0 -60 4 -56 10 3 6 2 10 -4
10 -5 0 -13 9 -16 20 -3 11 -13 20 -20 20 -16 0 -46 40 -39 52 3 4 0 8 -5 8
-6 0 -11 8 -12 18 0 14 -2 14 -9 -3 -8 -18 -11 -17 -9 2 0 4 -8 10 -18 14 -10
4 37 8 103 8 l122 1 6 -47z m340 -32 c11 -12 19 -37 20 -58 l1 -38 -57 -3 -58
-3 10 26 c6 15 10 51 10 81 l0 55 28 -19 c15 -11 36 -29 46 -41z m-601 32 c-7
-2 -21 -2 -30 0 -10 3 -4 5 12 5 17 0 24 -2 18 -5z m1017 -4 c0 -4 -7 -14 -15
-23 -14 -14 -18 -13 -40 6 -14 12 -25 22 -25 23 0 0 18 1 40 1 22 1 40 -3 40
-7z m40 3 c0 -5 -7 -9 -15 -9 -8 0 -15 4 -15 9 0 4 7 8 15 8 8 0 15 -4 15 -8z
m-594 -11 c-3 -4 -17 -6 -31 -3 -16 3 -33 -2 -45 -13 -11 -10 -21 -16 -23 -14
-1 2 -9 12 -16 22 -12 16 -9 17 53 17 37 0 65 -4 62 -9z m44 -10 c0 -23 -31
-52 -37 -34 -2 7 -11 9 -19 6 -8 -3 -14 0 -14 6 0 6 3 10 8 9 14 -3 42 14 36
23 -3 5 2 9 10 9 9 0 16 -8 16 -19z m310 -7 c12 -30 13 -105 2 -119 -4 -5 -32
-10 -62 -10 -30 0 -70 -4 -88 -8 l-33 -9 7 49 c3 27 1 66 -4 86 l-10 37 89 0
c87 0 90 -1 99 -26z m313 15 c-6 -6 -9 -19 -6 -28 4 -13 3 -14 -5 -1 -10 14 1
40 16 40 3 0 1 -5 -5 -11z m425 4 c-10 -2 -26 -2 -35 0 -10 3 -2 5 17 5 19 0
27 -2 18 -5z m-291 -75 c-2 -13 -4 -5 -4 17 -1 22 1 32 4 23 2 -10 2 -28 0
-40z m326 45 c-7 -2 -21 -2 -30 0 -10 3 -4 5 12 5 17 0 24 -2 18 -5z m-1095
-39 c-4 -3 -27 -6 -53 -6 -26 0 -49 3 -52 6 -4 3 20 6 52 6 32 0 56 -3 53 -6z
m1067 -4 c-3 -5 -13 -10 -21 -10 -8 0 -14 5 -14 10 0 6 9 10 21 10 11 0 17 -4
14 -10z m-711 -84 c-3 -9 -10 -16 -15 -16 -6 0 -5 9 1 21 13 24 24 20 14 -5z
m135 20 c-2 -2 -30 -11 -61 -19 -56 -15 -76 -9 -40 12 16 10 110 16 101 7z
m-379 -21 c0 -8 -4 -15 -10 -15 -5 0 -10 7 -10 15 0 8 5 15 10 15 6 0 10 -7
10 -15z m193 -12 c11 -10 -24 -43 -45 -43 -13 0 -18 7 -18 25 0 21 5 25 28 25
16 0 32 -3 35 -7z m-93 -24 c0 -17 -5 -20 -37 -17 -42 3 -47 19 -11 30 40 11
48 9 48 -13z m-125 3 c6 -4 17 -16 25 -27 13 -18 12 -18 -10 2 -14 11 -34 23
-45 26 l-20 5 20 1 c11 0 25 -3 30 -7z m312 2 c-3 -3 -12 -4 -19 -1 -8 3 -5 6
6 6 11 1 17 -2 13 -5z m-40 -10 c-3 -3 -12 -4 -19 -1 -8 3 -5 6 6 6 11 1 17
-2 13 -5z m-109 -41 c-21 -2 -57 -2 -80 0 -24 2 -7 4 37 4 44 0 63 -2 43 -4z"/>
<path d="M2838 1873 c7 -3 16 -2 19 1 4 3 -2 6 -13 5 -11 0 -14 -3 -6 -6z"/>
<path d="M2786 1853 c-3 -4 -6 -21 -6 -40 0 -26 4 -33 20 -33 16 0 20 7 20 34
0 31 -19 53 -34 39z"/>
<path d="M2848 1793 c7 -3 16 -2 19 1 4 3 -2 6 -13 5 -11 0 -14 -3 -6 -6z"/>
<path d="M2848 1743 c7 -3 16 -2 19 1 4 3 -2 6 -13 5 -11 0 -14 -3 -6 -6z"/>
<path d="M2970 1755 c0 -43 16 -46 22 -5 3 18 0 31 -9 34 -9 4 -13 -5 -13 -29z"/>
<path d="M3010 1750 c0 -16 5 -30 10 -30 6 0 10 14 10 30 0 17 -4 30 -10 30
-5 0 -10 -13 -10 -30z"/>
<path d="M3803 1635 c0 -8 6 -15 13 -15 8 0 11 6 8 15 -4 8 -9 15 -13 15 -4 0
-8 -7 -8 -15z"/>
<path d="M2857 1583 c-14 -13 -6 -23 18 -23 16 0 25 6 25 15 0 15 -31 21 -43
8z"/>
<path d="M2900 1505 c0 -9 9 -15 25 -15 16 0 25 6 25 15 0 9 -9 15 -25 15 -16
0 -25 -6 -25 -15z"/>
<path d="M3849 2277 c14 -18 71 -24 71 -7 0 6 -11 10 -24 10 -13 0 -33 3 -43
7 -16 6 -16 5 -4 -10z"/>
<path d="M2965 2208 c-16 -6 -37 -13 -45 -16 -10 -3 -5 -7 14 -13 21 -6 35 -4
52 9 41 30 32 38 -21 20z"/>
<path d="M2621 2065 c-6 -22 -11 -49 -10 -60 0 -11 7 3 15 30 7 28 12 55 10
60 -2 6 -8 -8 -15 -30z"/>
<path d="M3061 2021 c-7 -5 -23 -7 -35 -5 -20 4 -20 4 2 -7 19 -10 26 -10 40
4 18 18 15 22 -7 8z"/>
<path d="M3850 1960 c-9 -6 -10 -10 -3 -10 6 0 15 5 18 10 8 12 4 12 -15 0z"/>
<path d="M3226 1843 c-8 -19 8 -38 23 -29 16 10 13 46 -3 46 -8 0 -17 -8 -20
-17z"/>
<path d="M2581 1684 c0 -11 3 -14 6 -6 3 7 2 16 -1 19 -3 4 -6 -2 -5 -13z"/>
<path d="M2710 1381 c0 -6 4 -13 10 -16 5 -3 18 -25 28 -48 11 -24 57 -83 104
-132 l85 -89 54 17 c172 56 273 44 487 -57 75 -36 157 -70 182 -75 58 -13 178
-16 210 -6 101 31 296 196 380 321 27 42 50 80 50 85 0 5 -79 8 -187 7 -104
-1 -165 -3 -138 -5 79 -6 81 -9 34 -52 -37 -33 -46 -37 -66 -28 -12 5 -20 14
-17 18 6 10 -66 -14 -95 -32 -25 -17 -28 -39 -3 -37 9 1 28 0 42 -1 22 -1 23
-3 7 -12 -9 -6 -25 -9 -35 -8 -32 3 -97 -3 -79 -8 18 -5 24 -33 6 -33 -5 0 -7
5 -3 12 5 7 3 8 -6 3 -7 -4 -42 -7 -79 -7 -46 1 -60 -2 -46 -8 11 -5 43 -9 72
-9 28 -1 55 -5 58 -11 4 -6 -33 -10 -102 -11 -106 -1 -107 -1 -55 -13 30 -6
50 -14 46 -18 -13 -14 -217 -8 -249 7 l-30 13 27 1 c15 1 30 6 33 11 4 6 -26
10 -82 10 -60 0 -83 3 -73 10 11 7 -5 10 -52 10 -39 0 -68 4 -68 10 0 6 12 10
26 10 14 0 23 3 21 8 -3 4 15 6 39 5 24 0 41 3 38 8 -7 12 -156 11 -189 -1
-19 -7 -24 -7 -19 1 5 9 -11 10 -57 5 -35 -3 -80 -2 -99 3 l-35 8 50 7 c78 12
76 14 -10 16 -119 2 -138 16 -35 25 84 8 84 8 50 21 -19 7 -53 13 -75 13 -42
1 -89 20 -50 21 14 0 16 3 7 9 -7 4 12 6 43 3 33 -3 60 0 69 7 8 7 35 10 66 7
29 -2 62 -1 74 4 13 5 -54 9 -171 9 -115 1 -193 -3 -193 -8z m1547 -25 c7 -7
-9 -33 -20 -34 -7 0 -29 -5 -49 -10 -30 -8 -38 -7 -38 4 0 8 5 14 11 14 8 0 7
6 -2 17 -10 11 -10 14 -1 9 7 -4 12 -2 12 7 0 12 8 13 42 5 23 -5 44 -10 45
-12z m-197 -29 c0 -1 -16 -17 -35 -36 -19 -18 -35 -28 -35 -23 0 16 41 62 56
62 8 0 14 -1 14 -3z m60 -27 c-27 -21 -26 -22 42 -23 38 -1 26 -12 -15 -15
-19 -1 -41 4 -49 11 -7 8 -20 12 -28 10 -8 -2 1 5 20 16 45 26 62 26 30 1z
m-176 -26 c20 -20 21 -30 1 -14 -8 7 -30 16 -48 20 l-32 8 32 1 c17 1 39 -6
47 -15z m157 -35 c23 -19 23 -20 2 -9 -12 5 -26 10 -30 9 -4 -1 -19 -1 -33 0
-20 1 -22 3 -10 11 23 15 46 12 71 -11z m-152 -13 c-2 -3 -27 -14 -54 -25
l-50 -21 28 25 c15 14 40 25 54 25 15 0 24 -2 22 -4z m6 -46 c-10 -11 -21 -17
-24 -14 -3 3 3 12 13 20 28 20 32 17 11 -6z m-120 -124 c116 -30 91 -44 -31
-17 -66 15 -105 18 -149 13 -65 -8 -95 -5 -95 8 0 27 166 24 275 -4z"/>
<path d="M3758 1373 c6 -2 18 -2 25 0 6 3 1 5 -13 5 -14 0 -19 -2 -12 -5z"/>
<path d="M3663 1233 c9 -2 25 -2 35 0 9 3 1 5 -18 5 -19 0 -27 -2 -17 -5z"/>
<path d="M3023 1098 c-24 -5 -43 -13 -43 -18 0 -35 207 -135 334 -161 152 -31
401 -18 485 25 22 12 20 13 -25 9 -69 -7 -186 21 -273 63 -118 57 -168 72
-241 68 -61 -3 -63 -2 -40 11 l25 14 -31 1 c-17 0 -57 -9 -90 -20 -59 -20 -59
-20 -35 0 l23 20 -23 -1 c-13 -1 -43 -5 -66 -11z"/>
<path d="M4391 1159 l22 -31 18 23 c22 30 16 39 -27 39 l-35 0 22 -31z"/>
<path d="M2773 976 c-29 -14 -29 -21 -1 -40 25 -18 33 -13 42 27 7 30 -2 33
-41 13z"/>
<path d="M2997 848 c-14 -32 -13 -33 15 -48 60 -29 88 29 31 63 l-32 18 -14
-33z"/>
<path d="M3476 702 c-21 -41 -21 -42 15 -42 29 0 31 2 24 28 -10 43 -22 47
-39 14z"/>
</g>
</svg>
